<svg width="512" height="512" viewBox="0 0 512 512" fill="none" xmlns="http://www.w3.org/2000/svg">
<rect width="512" height="512" rx="80" fill="black"/>
<path d="M254.896 429C143.896 429 74.8965 361 74.8965 256.5C74.8965 152 143.896 84 254.896 84C368.397 84 436.896 152 436.896 256.5C436.896 361 368.397 429 254.896 429ZM254.896 357C328.396 357 356.897 331 356.897 256.5C356.897 182 328.396 156 254.896 156C181.396 156 154.396 182 154.396 256.5C154.396 331 181.396 357 254.896 357Z" fill="white"/>
<path d="M469.586 60H382.679C382.269 60 381.901 60.2499 381.749 60.6306L350.544 139.131C350.283 139.787 350.767 140.5 351.474 140.5H401.098C401.785 140.5 402.267 141.176 402.043 141.826L383.412 195.903C383.066 196.906 384.314 197.686 385.064 196.936L470.293 111.707C470.923 111.077 470.477 110 469.586 110H424.414C423.523 110 423.077 108.923 423.707 108.293L470.293 61.7071C470.923 61.0771 470.477 60 469.586 60Z" fill="#5C15F3" stroke="#5C15F3" stroke-width="7"/>
</svg>
